<?xml version="1.0" standalone="no"?>
<!DOCTYPE svg PUBLIC "-//W3C//DTD SVG 20010904//EN"
 "http://www.w3.org/TR/2001/REC-SVG-20010904/DTD/svg10.dtd">
<svg version="1.0" xmlns="http://www.w3.org/2000/svg"
 width="264.000000pt" height="264.000000pt" viewBox="0 0 264.000000 264.000000"
 preserveAspectRatio="xMidYMid meet">
<metadata>
Created by potrace 1.11, written by Peter Selinger 2001-2013
</metadata>
<g transform="translate(0.000000,264.000000) scale(0.100000,-0.100000)"
fill="#000000" stroke="none">
<path d="M854 2558 c-32 -46 -68 -96 -80 -113 -11 -16 -178 -255 -370 -530
-193 -275 -358 -512 -368 -526 l-17 -27 128 -211 c70 -116 133 -219 138 -228
44 -78 371 -619 376 -623 3 -3 8 -10 10 -16 15 -39 167 -274 177 -274 8 0 89
21 180 46 92 25 174 47 182 49 8 2 56 14 105 28 50 14 104 29 120 33 41 10 36
8 160 44 61 18 117 33 125 35 8 2 115 30 238 64 122 34 225 61 227 61 3 0 16
24 29 52 13 29 72 152 131 273 59 121 145 299 192 395 l84 175 -52 120 c-28
66 -62 145 -76 175 -13 30 -31 71 -40 90 -8 19 -51 118 -95 220 -44 102 -88
203 -98 225 -80 181 -67 163 -129 180 -31 9 -137 41 -236 71 -99 31 -188 57
-198 59 -17 4 -178 52 -257 78 -19 6 -39 12 -45 13 -5 1 -84 25 -175 53 -91
29 -172 53 -181 55 -8 2 -40 11 -69 20 -30 9 -55 16 -56 16 -1 0 -29 -37 -60
-82z"/>
</g>
</svg>
